<svg width="515" height="515" viewBox="0 0 515 515" fill="none" xmlns="http://www.w3.org/2000/svg">
<path d="M100.982 177.395C186.245 -98.526 364.063 97.3607 426.544 229.041C456.67 344.922 405.055 381.748 368.164 396.011C243.577 438.106 15.7187 453.316 100.982 177.395Z" fill="url(#paint0_linear_1_27)"/>
<path fill-rule="evenodd" clip-rule="evenodd" d="M398.116 196.297C408.454 196.736 418.013 199.944 427.567 203.954C439.02 208.761 452.759 211.381 459.343 221.994C466.07 232.839 465.383 247.168 462.03 259.509C458.877 271.116 450.307 280.109 441.387 288.091C433.344 295.287 423.344 298.733 413.453 302.975C402.18 307.809 391.509 316.358 379.374 314.685C366.774 312.948 354.583 305.033 348.129 293.969C341.929 283.342 346.945 270.08 346.173 257.771C345.478 246.678 339.965 235.601 343.817 225.189C347.756 214.541 357.074 206.685 367.032 201.387C376.51 196.343 387.412 195.843 398.116 196.297Z" fill="url(#paint1_linear_1_27)"/>
<path fill-rule="evenodd" clip-rule="evenodd" d="M71.017 135.86C94.1931 121.405 121.749 139.814 141.71 158.703C160.154 176.157 174.624 200.915 164.16 224.004C153.9 246.641 125.78 251.967 101.371 247.71C81.5229 244.248 70.111 226.254 64.7975 206.674C57.9276 181.36 48.9423 149.628 71.017 135.86Z" fill="url(#paint2_linear_1_27)"/>
<path d="M206.004 314.268L254.865 360.272L304.377 337.708L300.902 296.962V260.597L312.194 238.033V232.776L317.623 230.804L320.881 227.299L319.578 221.822L321.749 211.088L320.881 202.764L321.749 198.163L317.841 192.249C318.362 190.321 317.623 187.502 317.406 186.991L313.497 185.238L311.109 189.839L307.851 163.77L298.079 135.511L264.854 133.539L244.224 135.511L228.372 144.93L196.884 190.496L192.323 204.297L191.455 209.993L193.409 220.289C194.567 222.918 197.014 229.008 197.535 232.337C198.056 235.667 199.924 236.354 200.793 236.281H209.045L216.645 253.806L217.297 282.503L213.605 295.647L206.004 314.268Z" fill="#AD7166"/>
<g filter="url(#filter0_f_1_27)">
<path d="M228.404 144.631C228.404 145.831 221.444 159.751 210.404 189.032L215.804 188.432L221.204 174.031L231.404 153.631L238.604 144.631L251.804 138.031V134.431L228.404 144.631Z" fill="#563A39"/>
</g>
<path d="M254.648 206.708C254.648 208.824 253.496 221.064 252.91 223.364C253.154 224.202 255.389 226.215 258.316 227.556C259.455 228.355 263.108 229.473 266.426 227.556C270.573 225.161 270.122 224.85 271.586 221.137" stroke="black" stroke-width="2" stroke-linecap="round"/>
<path d="M225.207 187.868L210.347 189.401L209.479 194.147C211.223 193.394 213.735 196.973 214.773 198.857L216.642 213.381C217.514 216.144 221.262 218.719 223.027 219.661L242.181 220.289C248.534 218.028 251.68 213.695 252.458 211.811C253.704 209.927 255.988 203.515 256.974 197.915C261.334 195.906 265.227 197.078 266.629 197.915C267.127 200.93 269.051 206.245 270.4 211.373C271.895 215.392 277.46 218.7 280.055 219.851L290.455 220.289L301.199 219.347C304.189 217.589 306.598 214.428 307.428 213.067L308.207 202.468C308.332 198.198 309.976 196.163 311.326 195.535L310.24 188.744L303.224 187.868H273.169C268.311 188.998 266.785 192.525 266.629 194.147H256.974C256.725 191.133 253.237 188.705 251.524 187.868H225.207Z" fill="white"/>
<g filter="url(#filter1_f_1_27)">
<path d="M216.645 241.873L207.09 204.413H209.261L224.245 247.021L240.966 259.836L242.704 268.599L231.629 264.437L216.645 241.873Z" fill="#563A39"/>
</g>
<g filter="url(#filter2_f_1_27)">
<path d="M218.6 283.162V255.121L220.337 256.655V283.162L216.862 297.839L218.6 310.545L226.634 324.127L237.058 336.833L260.294 357.863L255.734 361.149L214.474 313.831L215.125 296.963L218.6 283.162Z" fill="#563A39"/>
</g>
<g filter="url(#filter3_f_1_27)">
<path d="M253.127 222.376L254.648 206.384L255.516 222.376L261.162 224.786L266.157 223.909L271.586 219.528L269.414 224.786L262.9 227.634L259.208 226.976L255.516 224.786L253.127 222.376Z" fill="#563A39"/>
</g>
<g filter="url(#filter4_f_1_27)">
<path d="M236.623 313.174L230.977 309.011L235.755 314.707L249.001 320.184L259.208 321.498L269.849 320.184L278.1 317.774L287.655 311.64V309.011L278.1 314.707L269.849 317.774L259.208 319.088L249.001 317.774L236.623 313.174Z" fill="#563A39"/>
</g>
<g filter="url(#filter5_f_1_27)">
<path d="M293.736 265.057C265.069 317.085 236.2 283.424 225.114 261.036L243.382 274.28L249.471 276.408L262.587 277.827H269.379L276.171 276.408L280.855 274.28L293.736 265.057Z" fill="#563A39"/>
</g>
<g filter="url(#filter6_f_1_27)">
<path d="M199.292 227.993L201.353 225.649C199.598 224.946 195.812 220.353 194.712 207.604L197.231 190.497L205.692 203.072L206.163 202.683L206.85 204.792L205.692 203.072L201.353 206.667L198.147 211.823L198.834 215.806L200.666 217.447L203.415 220.259L205.476 221.197L204.56 223.306L207.308 224.946L206.163 230.805L199.292 227.993Z" fill="#563A39"/>
</g>
<path d="M209.045 235.625L208.393 204.736L211.434 217.88L218.6 241.758L232.498 261.255L254.431 269.361L269.849 268.703L280.055 264.979L287.656 260.16L298.731 248.769L305.68 236.939L308.72 225.329L309.589 218.318L311.326 207.146L312.412 202.327L313.932 227.3L309.589 244.168L301.554 259.065L285.919 272.647L275.108 279.563L267.839 280.752H261.163H255.517L245.31 278.561L234.669 271.332L223.812 263.665L214.474 248.988L209.045 235.625Z" fill="black"/>
<path d="M235.972 242.634V262.788L241.184 264.979L239.664 260.598L240.098 246.359L242.487 241.977L244.876 241.101H261.597H281.575L282.878 243.511V263.884L287.656 260.598V242.634L282.878 236.939L271.152 236.501H257.471L248.133 236.939L241.184 237.815L235.972 242.634Z" fill="black" stroke="black"/>
<path d="M118.707 347.348L104.203 388.959L138.034 385.292L176.288 386.514L201.124 387.656L218.085 388.348L237.469 388.959L253.824 389.57H261.094H276.237L288.353 390.792H305.919L328.938 392.014L359.832 393.236L381.033 393.847L404.052 390.792L410.567 388.97L396.017 347.348L389.068 339.023L371.478 327.851L343.248 314.926L301.336 295.21C302.205 303.798 296.776 317.336 293.953 323.032C282.14 342.134 264.564 354.212 257.253 357.863C251.969 353.409 238.578 341.477 227.286 329.384C215.993 317.292 213.46 301.855 213.605 295.648L201.878 301.563L161.27 319.307L138.034 330.699L126.09 338.804L118.707 347.348Z" fill="url(#paint3_linear_1_27)"/>
<path d="M305.028 135.73L293.736 138.797C297.905 141.075 301.626 150.845 302.205 155.007L307.417 169.904L308.503 182.61L311.108 190.277L311.977 183.924L312.846 179.762L313.497 173.409V166.837L312.846 157.417L311.108 147.559L309.154 140.987L305.028 135.73Z" fill="url(#paint4_linear_1_27)"/>
<g filter="url(#filter7_f_1_27)">
<path d="M316.103 196.411V190.059L314.366 192.906L316.755 220.29L319.361 211.746V208.46C319.288 207.146 319.057 203.947 318.709 201.669C318.362 199.391 316.827 197.215 316.103 196.411Z" fill="#563A39"/>
</g>
<path d="M211.65 184.581L208.176 201.669C207.524 200.865 206.091 198.821 205.57 197.068C205.049 195.316 203.037 195.024 202.095 195.097L198.621 190.277H196.449L193.409 188.086L190.803 181.076L189.283 176.257L190.369 176.038C190.659 175.527 191.064 173.935 190.369 171.657C189.674 169.378 189.066 163.551 188.849 160.922L199.272 132.444H201.661L206.221 126.967L206.656 125.215C207.018 124.119 208.089 121.403 209.479 119.3C210.869 117.197 212.374 115.795 212.953 115.357L220.554 109.223L227.286 105.061C227.286 104.769 227.85 103.659 230.109 101.556C232.367 99.4527 235.972 97.4665 237.492 96.7363L249.219 93.2313L254.648 92.355C254.865 91.9899 256.168 91.2597 259.642 91.2597H267.894L272.237 92.355L275.929 91.2597L273.758 87.9737C272.368 86.9222 270.573 87.2435 269.849 87.5356L274.409 84.4686L278.752 84.0305L287.656 86.6593L295.908 91.6978L305.897 100.899C308.503 98.6203 308.141 96.7363 307.634 96.0791L315.235 100.241L319.578 106.594L318.492 113.166L314.366 122.586L305.245 137.044L294.822 139.454L284.181 135.73L264.637 134.416L245.31 137.044L233.366 143.835L228.154 148.217C226.417 167.144 216.428 180.346 211.65 184.581Z" fill="url(#paint5_linear_1_27)"/>
<g filter="url(#filter8_d_1_27)">
<path d="M209.329 235.894L208.243 220.559V202.377M209.329 235.894C197.863 238.523 196.3 231.586 196.951 227.789C191.566 221.304 191.522 209.606 192.174 204.568C194.258 194.754 196.227 191.132 196.951 190.548M209.329 235.894C210.481 239.638 212.945 246.182 216.268 252.324M301.187 258.896C294.411 267.133 282.004 275.764 276.648 279.05C266.745 283.256 252.543 280.802 246.68 279.05C242.684 278.174 230.104 268.316 224.313 263.496C221.316 260.689 218.584 256.604 216.268 252.324M301.187 258.896C304.536 254.608 311.037 243.868 313.041 232.17M301.187 258.896C300.144 266.081 300.752 285.841 301.187 294.823M208.243 202.377L211.718 184.195C224.573 171.927 227.932 154.84 228.005 147.83C237.907 139.593 245.45 136.804 247.983 136.438C271.436 131.882 288.881 136.584 294.672 139.505C300.057 143.536 301.838 151.408 302.055 154.84L307.484 170.174L308.787 184.195C309.494 186.518 310.104 188.947 310.63 191.424M208.243 202.377C207.23 199.602 204.682 194.272 202.597 195.148L198.471 190.548H196.951M196.951 190.548L194.562 206.32C193.346 214.732 198.254 222.239 200.86 224.941L198.471 226.912M196.951 190.548C191.392 187.743 190.726 182.953 191.088 180.909C190.219 180.032 189.423 177.477 189.133 176.308L191.088 174.994L189.133 164.917C188.265 162.288 190.074 156.958 191.088 154.621L198.905 132.495H201.294L206.506 126.8C207.201 117.862 220.404 108.763 226.919 105.331C232.825 96.919 244.581 93.7937 249.72 93.2826C256.496 91.0043 264.415 91.0189 267.527 91.311C272.218 93.0635 275.128 92.0412 275.996 91.311C274.78 87.4554 271.581 87.2218 270.133 87.5869C278.125 77.247 297.35 91.8951 305.964 100.512C308.222 99.4602 307.918 97.1527 307.484 96.1304C315.649 98.7592 318.704 103.944 319.211 106.207C319.211 117.986 309.588 129.377 305.964 136.438C310.378 141.185 317.49 158.827 310.63 191.424M310.63 191.424C313.594 205.391 313.872 220.904 313.565 227.789C313.469 229.257 313.289 230.721 313.041 232.17M310.63 191.424C311.029 189.525 312.175 185.684 313.565 185.509C314.723 185.29 317.213 185.684 317.908 189.014V192.081L320.948 197.558C321.31 198.288 321.817 200.274 320.948 202.377C321.455 205.955 321.817 214.995 319.211 222.531C320.296 224.284 321.643 228.314 318.342 230.417C317.414 231.294 315.055 232.871 313.041 232.17M316.17 189.014C315.736 190.694 315.302 194.622 317.039 196.9C317.763 198.215 319.211 201.939 319.211 206.32C319.573 209.168 319.471 215.871 316.17 219.902M206.289 205.444L205.136 203.322C200.358 206.243 193.192 213.574 202.747 219.533L204.986 220.559C203.972 221.363 202.814 223.101 206.289 223.626C206.651 224.649 206.897 227.263 204.986 229.541M216.268 252.324C216.854 258.969 217.85 274.362 217.147 282.774C215.989 285.841 213.672 292.544 213.672 294.823M213.672 294.823C212.586 311.325 223.073 331.399 257.471 357.862C269.27 352.677 302.72 326.536 301.187 294.823M213.672 294.823C189.133 310.763 122.833 328.288 117.254 351.56L104.375 389.407C136.586 380.207 196.951 389.407 257.471 389.407C307.664 389.407 378.3 398.608 410.484 389.407L397.605 351.56C392.026 328.288 325.725 310.763 301.187 294.823M230.61 308.572C239.152 316.313 262.706 327.149 288.592 308.572" stroke="black" shape-rendering="crispEdges"/>
</g>
<path d="M277.438 182.78C275.455 182.853 274.949 181.267 274.943 180.465C273.658 178.869 282.816 176.656 288.533 175.57C298.105 175.168 302.83 179.379 303.019 181.714C294.527 175.172 282.426 179.699 277.438 182.78Z" fill="black" stroke="black" stroke-width="3"/>
<path d="M247.723 182.833C249.707 182.871 250.185 181.276 250.176 180.474C251.432 178.855 242.234 176.809 236.498 175.827C226.919 175.6 222.27 179.897 222.123 182.234C230.498 175.539 242.679 179.844 247.723 182.833Z" fill="black" stroke="black" stroke-width="3"/>
<path d="M236.099 243.795C235.082 246.337 235.676 259.012 236.099 263.326C230.743 259.465 221.767 248.894 218.075 239.913C215.542 231.734 209.696 215.251 208.393 201.888V221.385L209.262 235.405L214.257 248.549L220.554 259.283L224.246 264.032L238.578 274.18L244.574 278.342L253.128 280.314L265.94 281.19L275.278 279.656L283.096 274.618L290.045 269.579L301.337 259.502L305.68 252.054L311.326 239.348L313.932 226.424L312.846 204.517L311.109 195.755C312.846 208.723 308.213 228.322 305.68 236.501C301.988 245.482 293.012 256.053 287.656 259.914V243.795C287.656 240.313 283.889 237.481 282.006 236.501H245.846C238.614 236.971 236.335 241.56 236.099 243.795Z" stroke="black"/>
<path d="M277.728 247.454C266.591 249.207 250.956 248.768 245.892 247.454C242.651 250.341 243.866 254.046 244.879 255.538C258.339 264.541 273.908 259.58 277.728 255.538C281.549 251.496 279.32 248.464 277.728 247.454Z" fill="white"/>
<path d="M254.482 196.283C255.976 188.998 233.199 189.584 221.624 190.788C219.631 190.285 218.198 192.881 217.731 194.242L219.288 209.237C219.911 215.391 223.597 216.825 225.361 216.773H243.425C246.913 216.019 249.654 211.853 250.588 209.865L254.482 196.283Z" fill="#AD7166"/>
<path d="M302.134 190.694H272.235C269.12 192.955 269.069 195.822 269.432 196.974L272.672 208.46C273.468 211.038 276.537 216.223 282.444 216.346L298.396 216.679C301.262 216.176 303.224 214.062 303.847 213.068L306.338 196.189C306.961 194.054 303.795 191.636 302.134 190.694Z" fill="#AD7166"/>
<path d="M239.565 198.383C239.565 200.637 237.756 202.453 235.538 202.453C233.32 202.453 231.51 200.637 231.51 198.383C231.51 196.129 233.32 194.314 235.538 194.314C237.756 194.314 239.565 196.129 239.565 198.383Z" stroke="black" stroke-width="1.5"/>
<rect x="232.498" y="204.955" width="6.08041" height="1.75252" fill="black"/>
<path d="M292.552 198.383C292.552 200.637 290.742 202.453 288.524 202.453C286.306 202.453 284.497 200.637 284.497 198.383C284.497 196.129 286.306 194.314 288.524 194.314C290.742 194.314 292.552 196.129 292.552 198.383Z" stroke="black" stroke-width="1.5"/>
<rect x="285.484" y="204.955" width="6.08041" height="1.75252" fill="black"/>
<defs>
<filter id="filter0_f_1_27" x="202.404" y="126.431" width="57.4004" height="70.6005" filterUnits="userSpaceOnUse" color-interpolation-filters="sRGB">
<feFlood flood-opacity="0" result="BackgroundImageFix"/>
<feBlend mode="normal" in="SourceGraphic" in2="BackgroundImageFix" result="shape"/>
<feGaussianBlur stdDeviation="4" result="effect1_foregroundBlur_1_27"/>
</filter>
<filter id="filter1_f_1_27" x="199.09" y="196.413" width="51.6138" height="80.1861" filterUnits="userSpaceOnUse" color-interpolation-filters="sRGB">
<feFlood flood-opacity="0" result="BackgroundImageFix"/>
<feBlend mode="normal" in="SourceGraphic" in2="BackgroundImageFix" result="shape"/>
<feGaussianBlur stdDeviation="4" result="effect1_foregroundBlur_1_27"/>
</filter>
<filter id="filter2_f_1_27" x="206.474" y="247.121" width="61.8203" height="122.028" filterUnits="userSpaceOnUse" color-interpolation-filters="sRGB">
<feFlood flood-opacity="0" result="BackgroundImageFix"/>
<feBlend mode="normal" in="SourceGraphic" in2="BackgroundImageFix" result="shape"/>
<feGaussianBlur stdDeviation="4" result="effect1_foregroundBlur_1_27"/>
</filter>
<filter id="filter3_f_1_27" x="249.127" y="202.384" width="26.4585" height="29.2493" filterUnits="userSpaceOnUse" color-interpolation-filters="sRGB">
<feFlood flood-opacity="0" result="BackgroundImageFix"/>
<feBlend mode="normal" in="SourceGraphic" in2="BackgroundImageFix" result="shape"/>
<feGaussianBlur stdDeviation="2" result="effect1_foregroundBlur_1_27"/>
</filter>
<filter id="filter4_f_1_27" x="220.977" y="299.011" width="76.6782" height="32.4867" filterUnits="userSpaceOnUse" color-interpolation-filters="sRGB">
<feFlood flood-opacity="0" result="BackgroundImageFix"/>
<feBlend mode="normal" in="SourceGraphic" in2="BackgroundImageFix" result="shape"/>
<feGaussianBlur stdDeviation="5" result="effect1_foregroundBlur_1_27"/>
</filter>
<filter id="filter5_f_1_27" x="214.114" y="250.036" width="90.6218" height="53.5454" filterUnits="userSpaceOnUse" color-interpolation-filters="sRGB">
<feFlood flood-opacity="0" result="BackgroundImageFix"/>
<feBlend mode="normal" in="SourceGraphic" in2="BackgroundImageFix" result="shape"/>
<feGaussianBlur stdDeviation="5.5" result="effect1_foregroundBlur_1_27"/>
</filter>
<filter id="filter6_f_1_27" x="186.712" y="182.497" width="28.5952" height="56.308" filterUnits="userSpaceOnUse" color-interpolation-filters="sRGB">
<feFlood flood-opacity="0" result="BackgroundImageFix"/>
<feBlend mode="normal" in="SourceGraphic" in2="BackgroundImageFix" result="shape"/>
<feGaussianBlur stdDeviation="4" result="effect1_foregroundBlur_1_27"/>
</filter>
<filter id="filter7_f_1_27" x="306.366" y="182.059" width="20.9946" height="46.231" filterUnits="userSpaceOnUse" color-interpolation-filters="sRGB">
<feFlood flood-opacity="0" result="BackgroundImageFix"/>
<feBlend mode="normal" in="SourceGraphic" in2="BackgroundImageFix" result="shape"/>
<feGaussianBlur stdDeviation="4" result="effect1_foregroundBlur_1_27"/>
</filter>
<filter id="filter8_d_1_27" x="74.5935" y="54.5305" width="365.533" height="368.466" filterUnits="userSpaceOnUse" color-interpolation-filters="sRGB">
<feFlood flood-opacity="0" result="BackgroundImageFix"/>
<feColorMatrix in="SourceAlpha" type="matrix" values="0 0 0 0 0 0 0 0 0 0 0 0 0 0 0 0 0 0 127 0" result="hardAlpha"/>
<feOffset/>
<feGaussianBlur stdDeviation="14.5"/>
<feComposite in2="hardAlpha" operator="out"/>
<feColorMatrix type="matrix" values="0 0 0 0 0 0 0 0 0 0 0 0 0 0 0 0 0 0 1 0"/>
<feBlend mode="normal" in2="BackgroundImageFix" result="effect1_dropShadow_1_27"/>
<feBlend mode="normal" in="SourceGraphic" in2="effect1_dropShadow_1_27" result="shape"/>
</filter>
<linearGradient id="paint0_linear_1_27" x1="284.804" y1="180.631" x2="156.349" y2="409.422" gradientUnits="userSpaceOnUse">
<stop stop-color="#C9DEEF"/>
<stop offset="1" stop-color="#5C88AC" stop-opacity="0.7"/>
</linearGradient>
<linearGradient id="paint1_linear_1_27" x1="403.005" y1="247.832" x2="403.483" y2="314.899" gradientUnits="userSpaceOnUse">
<stop stop-color="#D42C41"/>
<stop offset="1" stop-color="#8D0516"/>
</linearGradient>
<linearGradient id="paint2_linear_1_27" x1="87.4026" y1="167.431" x2="132.602" y2="381.465" gradientUnits="userSpaceOnUse">
<stop stop-color="#4C80A2"/>
<stop offset="1" stop-color="#00375A"/>
</linearGradient>
<linearGradient id="paint3_linear_1_27" x1="243.79" y1="326.756" x2="247.325" y2="510.55" gradientUnits="userSpaceOnUse">
<stop stop-color="#004979"/>
<stop offset="1" stop-color="#122634"/>
</linearGradient>
<linearGradient id="paint4_linear_1_27" x1="358.232" y1="114.042" x2="276.784" y2="169.022" gradientUnits="userSpaceOnUse">
<stop stop-color="#814D00"/>
<stop offset="1"/>
</linearGradient>
<linearGradient id="paint5_linear_1_27" x1="225.114" y1="84.0305" x2="260.143" y2="159.375" gradientUnits="userSpaceOnUse">
<stop stop-color="#814D00"/>
<stop offset="0.791535"/>
</linearGradient>
</defs>
</svg>
